<?xml version="1.0" encoding="utf-8"?>
<!-- Generator: Adobe Illustrator 23.0.1, SVG Export Plug-In . SVG Version: 6.00 Build 0)  -->
<svg version="1.1" id="Layer_1" xmlns="http://www.w3.org/2000/svg" xmlns:xlink="http://www.w3.org/1999/xlink" x="0px" y="0px"
	 viewBox="0 0 2836 2906" style="enable-background:new 0 0 2836 2906;" xml:space="preserve">
<style type="text/css">
	.st0{fill:#66BBC9;}
	.st1{fill:#F7BA1D;}
	.st2{fill:#E4A33A;}
</style>
<g>
	<polygon class="st0" points="1237.9,2010.9 1201.2,1982.8 1237.7,2010.8 	"/>
	<path class="st1" d="M1237.9,2010.9l-0.2-0.2l-36.5-28l-341.9-261.5L87.5,1129.6c-52.4,44.8-87,116.3-87,196.5v1334.6
		c0,69.9,26.1,132.6,67.4,177.2l959.1-599.9l279.2-174.6L1237.9,2010.9z"/>
	<path class="st1" d="M2720.5,1129.6l-896.8,690.6l0,0l-189.6,150.1l-96.6,76.4l-16.1,12.6l339.8,216.4l897.3,571.4
		c46.7-45,77-111.3,77-186.4V1326.1C2835.5,1232.3,2788.6,1170.8,2720.5,1129.6z"/>
	<path class="st2" d="M1861.2,2275.7l-339.8-216.4l16.1-12.6c-1,0.6-89.6,55.6-133.6,55.6c-43.8,0-165.2-90.7-166-91.3l68.4,52.4
		L1027,2237.9L67.9,2837.9c38.5,41.9,90.7,67.9,148.3,67.9h2403.5c53.2,0,101.1-22.6,138.7-58.7L1861.2,2275.7z"/>
</g>
</svg>
