<?xml version="1.0" encoding="iso-8859-1"?>
<!-- Generator: Adobe Illustrator 16.0.0, SVG Export Plug-In . SVG Version: 6.00 Build 0)  -->
<!DOCTYPE svg PUBLIC "-//W3C//DTD SVG 1.1//EN" "http://www.w3.org/Graphics/SVG/1.1/DTD/svg11.dtd">
<svg version="1.1" id="Capa_1" xmlns="http://www.w3.org/2000/svg" xmlns:xlink="http://www.w3.org/1999/xlink" x="0px" y="0px"
	 width="612px" height="612px" viewBox="0 0 612 612" style="enable-background:new 0 0 612 612;" xml:space="preserve">
<g>
	<g id="calender">
		<g>
			<path d="M439.875,114.75c21.133,0,38.25-17.117,38.25-38.25V38.25c0-21.133-17.117-38.25-38.25-38.25s-38.25,17.117-38.25,38.25
				V76.5C401.625,97.633,418.742,114.75,439.875,114.75z M172.125,114.75c21.133,0,38.25-17.117,38.25-38.25V38.25
				c0-21.133-17.117-38.25-38.25-38.25s-38.25,17.117-38.25,38.25V76.5C133.875,97.633,150.992,114.75,172.125,114.75z
				 M554.625,76.5h-38.25c0,42.247-34.253,76.5-76.5,76.5s-76.5-34.253-76.5-76.5h-114.75c0,42.247-34.253,76.5-76.5,76.5
				s-76.5-34.253-76.5-76.5h-38.25C25.685,76.5,0,102.185,0,133.875v420.75C0,586.315,25.685,612,57.375,612h497.25
				c31.69,0,57.375-25.685,57.375-57.375v-420.75C612,102.185,586.315,76.5,554.625,76.5z M535.5,516.375
				c0,10.557-8.568,19.125-19.125,19.125H95.625c-10.557,0-19.125-8.568-19.125-19.125v-267.75c0-10.557,8.568-19.125,19.125-19.125
				h420.75c10.557,0,19.125,8.568,19.125,19.125V516.375z"/>
		</g>
	</g>
</g>
<g>
</g>
<g>
</g>
<g>
</g>
<g>
</g>
<g>
</g>
<g>
</g>
<g>
</g>
<g>
</g>
<g>
</g>
<g>
</g>
<g>
</g>
<g>
</g>
<g>
</g>
<g>
</g>
<g>
</g>
</svg>
